<?xml version="1.0" encoding="UTF-8" standalone="no"?>
<svg
   xmlns:dc="http://purl.org/dc/elements/1.1/"
   xmlns:cc="http://creativecommons.org/ns#"
   xmlns:rdf="http://www.w3.org/1999/02/22-rdf-syntax-ns#"
   xmlns:svg="http://www.w3.org/2000/svg"
   xmlns="http://www.w3.org/2000/svg"
   xmlns:sodipodi="http://sodipodi.sourceforge.net/DTD/sodipodi-0.dtd"
   xmlns:inkscape="http://www.inkscape.org/namespaces/inkscape"
   inkscape:version="1.0 (4035a4fb49, 2020-05-01)"
   sodipodi:docname="Twitter_Logo_WhiteOnImage.svg"
   id="svg12"
   xml:space="preserve"
   style="enable-background:new 0 0 400 400;"
   viewBox="0 0 400 400"
   y="0px"
   x="0px"
   version="1.1"><metadata
   id="metadata18"><rdf:RDF><cc:Work
       rdf:about=""><dc:format>image/svg+xml</dc:format><dc:type
         rdf:resource="http://purl.org/dc/dcmitype/StillImage" /><dc:title></dc:title></cc:Work></rdf:RDF></metadata><defs
   id="defs16" /><sodipodi:namedview
   inkscape:current-layer="svg12"
   inkscape:window-maximized="1"
   inkscape:window-y="-8"
   inkscape:window-x="-8"
   inkscape:cy="201.92836"
   inkscape:cx="200"
   inkscape:zoom="1.445"
   inkscape:pagecheckerboard="true"
   showgrid="false"
   id="namedview14"
   inkscape:window-height="745"
   inkscape:window-width="1366"
   inkscape:pageshadow="2"
   inkscape:pageopacity="0"
   guidetolerance="10"
   gridtolerance="10"
   objecttolerance="10"
   borderopacity="1"
   bordercolor="#666666"
   pagecolor="#ffffff" />
<style
   id="style2"
   type="text/css">
	.st0{opacity:0.15;fill:#292F33;}
	.st1{fill:#FFFFFF;}
</style>

<g
   id="Logo__x2014__FIXED">
	<g
   id="g9">
		<path
   id="path7"
   d="M153.6,301.6c94.3,0,145.9-78.2,145.9-145.9c0-2.2,0-4.4-0.1-6.6c10-7.2,18.7-16.3,25.6-26.6    c-9.2,4.1-19.1,6.8-29.5,8.1c10.6-6.3,18.7-16.4,22.6-28.4c-9.9,5.9-20.9,10.1-32.6,12.4c-9.4-10-22.7-16.2-37.4-16.2    c-28.3,0-51.3,23-51.3,51.3c0,4,0.5,7.9,1.3,11.7c-42.6-2.1-80.4-22.6-105.7-53.6c-4.4,7.6-6.9,16.4-6.9,25.8    c0,17.8,9.1,33.5,22.8,42.7c-8.4-0.3-16.3-2.6-23.2-6.4c0,0.2,0,0.4,0,0.7c0,24.8,17.7,45.6,41.1,50.3c-4.3,1.2-8.8,1.8-13.5,1.8    c-3.3,0-6.5-0.3-9.6-0.9c6.5,20.4,25.5,35.2,47.9,35.6c-17.6,13.8-39.7,22-63.7,22c-4.1,0-8.2-0.2-12.2-0.7    C97.7,293.1,124.7,301.6,153.6,301.6"
   class="st1" />
	</g>
</g>
</svg>
